# Blender v2.79 (sub 0) OBJ File: ''
# www.blender.org
mtllib bed.mtl
o cox_o
v 2.546698 1.782266 1.085000
v 2.546698 1.284730 1.085000
v 2.546698 1.284730 -1.085000
v 2.546698 1.782266 -1.085000
v 2.446698 1.284730 1.185000
v 2.446698 1.284730 -1.185000
v -3.457052 1.284730 1.085000
v -3.457052 1.782266 1.085000
v -3.457052 1.782266 -1.085000
v -3.457052 1.284730 -1.085000
v -3.357052 1.782266 -1.185000
v -3.377052 1.842266 -1.086361
v 2.466698 1.842266 -1.086361
v 2.446698 1.782266 -1.185000
v -3.357052 1.284730 -1.185000
v -3.357052 1.782266 1.185000
v -3.357052 1.284730 1.185000
v 2.446698 1.782266 1.185000
v 2.466698 1.842266 1.086360
v -3.377052 1.842266 1.086360
vt 0.911156 0.926386
vt 0.911451 0.986498
vt 0.671619 0.987359
vt 0.670192 0.926386
vt 0.980295 0.912489
vt 0.598040 0.915933
vt 0.915670 0.198735
vt 0.911156 0.259708
vt 0.670192 0.259708
vt 0.672394 0.198735
vt 0.659087 0.270813
vt 0.670041 0.268592
vt 0.670041 0.917503
vt 0.659087 0.915282
vt 0.603206 0.271023
vt 0.922261 0.270813
vt 0.981586 0.271453
vt 0.922261 0.915282
vt 0.911307 0.917503
vt 0.911308 0.268592
vn 1.0000 0.0000 0.0000
vn 0.0000 -1.0000 -0.0000
vn -1.0000 0.0000 0.0000
vn 0.0000 0.8544 -0.5197
vn 0.0000 0.0000 -1.0000
vn 0.0000 -0.0000 1.0000
vn 0.0000 1.0000 0.0000
vn 0.0000 0.8544 0.5197
vn -0.7071 -0.0000 0.7071
vn 0.7071 0.0000 0.7071
vn 0.7071 0.0000 -0.7071
vn -0.7071 0.0000 -0.7071
vn 0.6000 0.8000 0.0000
vn 0.5186 0.6797 -0.5186
vn 0.5186 0.6797 0.5186
vn -0.6000 0.8000 0.0000
vn -0.5186 0.6797 -0.5186
vn -0.5186 0.6797 0.5186
usemtl cama_2
s off
f 1/1/1 2/2/1 3/3/1 4/4/1
f 5/5/2 6/6/2 3/3/2 2/2/2
f 7/7/3 8/8/3 9/9/3 10/10/3
f 11/11/4 12/12/4 13/13/4 14/14/4
f 15/15/5 11/11/5 14/14/5 6/6/5
f 16/16/6 17/17/6 5/5/6 18/18/6
f 17/17/2 15/15/2 6/6/2 5/5/2
f 17/17/2 7/7/2 10/10/2 15/15/2
f 19/19/7 13/13/7 12/12/7 20/20/7
f 20/20/8 16/16/8 18/18/8 19/19/8
f 7/7/9 17/17/9 16/16/9 8/8/9
f 1/1/10 18/18/10 5/5/10 2/2/10
f 3/3/11 6/6/11 14/14/11 4/4/11
f 9/9/12 11/11/12 15/15/12 10/10/12
f 4/4/13 13/13/13 19/19/13 1/1/13
f 13/13/14 4/4/14 14/14/14
f 19/19/15 18/18/15 1/1/15
f 12/12/16 9/9/16 8/8/16 20/20/16
f 9/9/17 12/12/17 11/11/17
f 16/16/18 20/20/18 8/8/18
o cama02
v 2.716547 2.238544 1.273533
v 2.576236 2.238544 1.368174
v 2.442869 2.238544 1.263976
v 2.500755 2.238544 1.104937
v 2.669896 2.238544 1.110844
v 2.576236 2.366777 1.368174
v 2.716547 2.366777 1.273533
v 2.442869 2.366777 1.263976
v 2.500755 2.366777 1.104937
v 2.669896 2.366777 1.110844
v 2.580469 0.125032 1.335335
v 2.580470 2.440354 1.335335
v 2.478570 2.440354 1.255722
v 2.478569 0.125032 1.255722
v 2.652031 0.125032 1.138721
v 2.652031 2.440354 1.138721
v 2.687675 2.440354 1.263024
v 2.687675 0.125032 1.263024
v 2.522797 2.440354 1.134208
v 2.522797 0.125032 1.134208
v 2.716547 -0.003201 1.273533
v 2.576236 -0.003201 1.368173
v 2.442868 -0.003201 1.263976
v 2.500754 -0.003201 1.104937
v 2.669896 -0.003201 1.110844
v 2.576236 0.125032 1.368173
v 2.716547 0.125032 1.273533
v 2.442868 0.125032 1.263976
v 2.500754 0.125032 1.104937
v 2.669896 0.125032 1.110844
v 2.576236 2.238544 -1.368174
v 2.716547 2.238544 -1.273533
v 2.442869 2.238544 -1.263976
v 2.669896 2.238544 -1.110844
v 2.500755 2.238544 -1.104937
v 2.576236 2.366777 -1.368174
v 2.716547 2.366777 -1.273533
v 2.442869 2.366777 -1.263976
v 2.500755 2.366777 -1.104937
v 2.669896 2.366777 -1.110844
v 2.478570 2.440354 -1.255722
v 2.580470 2.440354 -1.335335
v 2.580469 0.125032 -1.335335
v 2.478569 0.125032 -1.255722
v 2.687675 2.440354 -1.263024
v 2.652031 2.440354 -1.138721
v 2.652031 0.125032 -1.138721
v 2.687675 0.125032 -1.263024
v 2.522797 2.440354 -1.134208
v 2.522797 0.125032 -1.134208
v 2.576236 -0.003201 -1.368174
v 2.716547 -0.003201 -1.273533
v 2.442868 -0.003201 -1.263976
v 2.669896 -0.003201 -1.110844
v 2.500754 -0.003201 -1.104937
v 2.576236 0.125032 -1.368174
v 2.716547 0.125032 -1.273533
v 2.442868 0.125032 -1.263976
v 2.500754 0.125032 -1.104937
v 2.669896 0.125032 -1.110844
v 2.626853 2.168032 -1.138721
v 2.547975 2.168032 -1.134208
v 2.547975 2.168032 1.134208
v 2.626853 2.168032 1.138721
v 2.547975 1.909716 -1.134208
v 2.547975 1.909716 1.134208
v 2.626853 1.909716 -1.138721
v 2.626853 1.909716 1.138721
v -3.503578 2.963960 1.368174
v -3.643889 2.963960 1.273533
v -3.370211 2.963960 1.263976
v -3.597238 2.963960 1.110844
v -3.428097 2.963960 1.104937
v -3.503578 3.092194 1.368174
v -3.643889 3.092194 1.273533
v -3.370211 3.092194 1.263976
v -3.428097 3.092194 1.104937
v -3.597238 3.092194 1.110844
v -3.405912 3.165770 1.255722
v -3.507812 3.165770 1.335335
v -3.507812 0.125032 1.335335
v -3.405911 0.125032 1.255722
v -3.615017 3.165770 1.263024
v -3.579373 3.165770 1.138721
v -3.579373 0.125032 1.138721
v -3.615017 0.125032 1.263024
v -3.450140 3.165770 1.134208
v -3.450139 0.125032 1.134208
v -3.503578 -0.003201 1.368173
v -3.643889 -0.003201 1.273533
v -3.370210 -0.003201 1.263976
v -3.597238 -0.003201 1.110844
v -3.428096 -0.003201 1.104937
v -3.503578 0.125032 1.368173
v -3.643889 0.125032 1.273533
v -3.370210 0.125032 1.263976
v -3.428096 0.125032 1.104937
v -3.597238 0.125032 1.110844
v -3.643889 2.963960 -1.273533
v -3.503578 2.963960 -1.368174
v -3.370211 2.963960 -1.263976
v -3.428097 2.963960 -1.104937
v -3.597238 2.963960 -1.110844
v -3.503578 3.092194 -1.368174
v -3.643889 3.092194 -1.273533
v -3.370211 3.092194 -1.263976
v -3.428097 3.092194 -1.104937
v -3.597238 3.092194 -1.110844
v -3.507812 0.125032 -1.335335
v -3.507812 3.165770 -1.335335
v -3.405912 3.165770 -1.255722
v -3.405911 0.125032 -1.255722
v -3.579373 0.125032 -1.138721
v -3.579373 3.165770 -1.138721
v -3.615017 3.165770 -1.263024
v -3.615017 0.125032 -1.263024
v -3.450140 3.165770 -1.134208
v -3.450139 0.125032 -1.134208
v -3.643889 -0.003201 -1.273533
v -3.503578 -0.003201 -1.368174
v -3.370210 -0.003201 -1.263976
v -3.428096 -0.003201 -1.104937
v -3.597238 -0.003201 -1.110844
v -3.503578 0.125032 -1.368174
v -3.643889 0.125032 -1.273533
v -3.370210 0.125032 -1.263976
v -3.428096 0.125032 -1.104937
v -3.597238 0.125032 -1.110844
v -3.475317 2.732681 1.134208
v -3.475317 2.732681 -1.134208
v -3.554195 2.732681 -1.138721
v -3.554195 2.732681 1.138721
v -3.475317 2.035506 1.134208
v -3.475317 2.035506 -1.134208
v -3.554195 2.035506 1.138721
v -3.554195 2.035506 -1.138721
v 2.646698 1.025142 1.285000
v 2.646698 1.284730 1.285000
v -3.557052 1.284730 1.285000
v -3.557052 1.025142 1.285000
v 2.646698 1.025142 -1.285000
v 2.646698 1.284730 -1.285000
v -3.557052 1.025142 -1.285000
v -3.557052 1.284730 -1.285000
v -3.457052 1.025142 1.185000
v 2.546698 1.025142 1.185000
v -3.457052 1.025142 -1.185000
v 2.546698 1.284730 1.185000
v -3.457052 1.284730 1.185000
v 2.546698 1.284730 -1.185000
v -3.457052 1.284730 -1.185000
v 2.546698 1.025142 -1.185000
vt 0.075285 0.767421
vt 0.063955 0.775169
vt 0.053186 0.766638
vt 0.057860 0.753618
vt 0.071518 0.754102
vt 0.365679 0.975778
vt 0.366795 0.943097
vt 0.398320 0.943097
vt 0.397204 0.975778
vt 0.333837 0.975778
vt 0.334953 0.943097
vt 0.304796 0.975778
vt 0.305912 0.943097
vt 0.277305 0.975778
vt 0.278421 0.943097
vt 0.427205 0.943097
vt 0.426089 0.975778
vt 0.139877 0.783078
vt 0.126219 0.783561
vt 0.121545 0.770541
vt 0.143644 0.769759
vt 0.132314 0.762010
vt 0.366485 0.498917
vt 0.366485 0.987444
vt 0.333590 0.987444
vt 0.333590 0.498917
vt 0.425534 0.498917
vt 0.425534 0.987444
vt 0.397759 0.987444
vt 0.397759 0.498917
vt 0.304019 0.987444
vt 0.304019 0.498917
vt 0.276968 0.987444
vt 0.276968 0.498917
vt 0.062423 0.891441
vt 0.051988 0.891811
vt 0.048417 0.881863
vt 0.065302 0.881265
vt 0.056645 0.875345
vt 0.395462 0.317190
vt 0.387714 0.305860
vt 0.396244 0.295091
vt 0.409265 0.299765
vt 0.408781 0.313423
vt 0.402085 0.343419
vt 0.432463 0.343419
vt 0.432463 0.396417
vt 0.402085 0.396416
vt 0.402085 0.290949
vt 0.432463 0.290950
vt 0.402085 0.243236
vt 0.432463 0.243236
vt 0.402085 0.197481
vt 0.432463 0.197481
vt 0.432463 0.444754
vt 0.402085 0.444754
vt 0.429453 0.312397
vt 0.428970 0.298739
vt 0.441990 0.294065
vt 0.442772 0.316164
vt 0.450520 0.304834
vt 0.132314 0.835939
vt 0.143644 0.843687
vt 0.121545 0.844470
vt 0.139877 0.857007
vt 0.126219 0.857490
vt 0.426987 0.943097
vt 0.454477 0.943097
vt 0.453361 0.975778
vt 0.425871 0.975778
vt 0.483519 0.943097
vt 0.482403 0.975778
vt 0.515361 0.943097
vt 0.514245 0.975778
vt 0.546885 0.943097
vt 0.545769 0.975778
vt 0.575771 0.943097
vt 0.574655 0.975778
vt 0.082084 0.883902
vt 0.086758 0.870881
vt 0.100416 0.871365
vt 0.104183 0.884684
vt 0.092853 0.892432
vt 0.482155 0.987444
vt 0.452585 0.987444
vt 0.452585 0.498917
vt 0.482155 0.498917
vt 0.574099 0.987444
vt 0.546325 0.987444
vt 0.546325 0.498917
vt 0.574099 0.498917
vt 0.425534 0.987444
vt 0.425534 0.498917
vt 0.515051 0.987444
vt 0.515051 0.498917
vt 0.089379 0.772988
vt 0.092950 0.763040
vt 0.103385 0.763410
vt 0.106264 0.773586
vt 0.097607 0.779506
vt 0.478079 0.230459
vt 0.470331 0.241789
vt 0.469549 0.219689
vt 0.457012 0.238022
vt 0.456528 0.224364
vt 0.462842 0.197481
vt 0.462842 0.243236
vt 0.432463 0.243236
vt 0.432463 0.197481
vt 0.462842 0.290950
vt 0.432463 0.290950
vt 0.462842 0.343419
vt 0.432463 0.343419
vt 0.462842 0.396417
vt 0.432463 0.396417
vt 0.462842 0.444754
vt 0.432463 0.444754
vt 0.428094 0.219689
vt 0.441115 0.224364
vt 0.440631 0.238022
vt 0.427312 0.241789
vt 0.419564 0.230459
vt 0.349735 0.249342
vt 0.349783 0.235297
vt 0.014858 0.235297
vt 0.014816 0.249342
vt 0.349783 0.197309
vt 0.014858 0.197309
vt 0.349735 0.211354
vt 0.014816 0.211354
vt 0.132875 0.894455
vt 0.121545 0.886706
vt 0.143644 0.885924
vt 0.125312 0.873387
vt 0.138970 0.872904
vt 0.064845 0.946925
vt 0.092474 0.946925
vt 0.092230 0.974304
vt 0.064601 0.974304
vt 0.120382 0.946925
vt 0.120137 0.974304
vt 0.146733 0.946925
vt 0.146488 0.974304
vt 0.015627 0.946925
vt 0.039720 0.946925
vt 0.039476 0.974304
vt 0.015382 0.974304
vt 0.075285 0.799113
vt 0.070611 0.812133
vt 0.056952 0.811650
vt 0.053186 0.798331
vt 0.064516 0.790583
vt 0.120843 0.987444
vt 0.092012 0.987444
vt 0.089848 0.407363
vt 0.118678 0.407363
vt 0.064602 0.987444
vt 0.040260 0.987444
vt 0.038095 0.407363
vt 0.062438 0.407363
vt 0.146760 0.987444
vt 0.144595 0.407363
vt 0.016551 0.987444
vt 0.014387 0.407363
vt 0.106264 0.801437
vt 0.102692 0.811386
vt 0.092257 0.811016
vt 0.089379 0.800840
vt 0.098035 0.794920
vt 0.388077 0.226994
vt 0.395825 0.215664
vt 0.396608 0.237763
vt 0.409145 0.219431
vt 0.409628 0.233089
vt 0.493221 0.290950
vt 0.493221 0.343419
vt 0.462842 0.343419
vt 0.462842 0.290950
vt 0.493221 0.396417
vt 0.462842 0.396417
vt 0.493221 0.444754
vt 0.462842 0.444754
vt 0.493221 0.197481
vt 0.493221 0.243236
vt 0.462842 0.243236
vt 0.462842 0.197481
vt 0.438062 0.275065
vt 0.425042 0.270391
vt 0.425525 0.256733
vt 0.438844 0.252966
vt 0.446592 0.264296
vt 0.121545 0.806723
vt 0.132875 0.798975
vt 0.143644 0.807505
vt 0.138970 0.820526
vt 0.125312 0.820042
vt 0.169684 0.974304
vt 0.169929 0.946925
vt 0.195053 0.946925
vt 0.194809 0.974304
vt 0.145591 0.974304
vt 0.145835 0.946925
vt 0.250346 0.974304
vt 0.250590 0.946925
vt 0.276941 0.946925
vt 0.276697 0.974304
vt 0.222438 0.974304
vt 0.222683 0.946925
vt 0.090734 0.833134
vt 0.104392 0.832650
vt 0.109066 0.845671
vt 0.086967 0.846453
vt 0.098297 0.854201
vt 0.168304 0.407363
vt 0.170468 0.987444
vt 0.146760 0.987444
vt 0.144595 0.407363
vt 0.220056 0.407363
vt 0.222220 0.987444
vt 0.194810 0.987444
vt 0.192646 0.407363
vt 0.274803 0.407363
vt 0.276968 0.987444
vt 0.251051 0.987444
vt 0.248887 0.407363
vt 0.055062 0.839234
vt 0.065498 0.838865
vt 0.069069 0.848813
vt 0.052184 0.849411
vt 0.060841 0.855331
vt 0.401880 0.252966
vt 0.409628 0.264296
vt 0.401097 0.275065
vt 0.388077 0.270391
vt 0.388561 0.256733
vt 0.371706 0.243236
vt 0.402085 0.243236
vt 0.402085 0.290950
vt 0.371706 0.290950
vt 0.371706 0.197481
vt 0.402085 0.197481
vt 0.371706 0.396417
vt 0.402085 0.396417
vt 0.402085 0.444754
vt 0.371706 0.444754
vt 0.371706 0.343419
vt 0.402085 0.343419
vt 0.477070 0.260639
vt 0.477553 0.274297
vt 0.464533 0.278971
vt 0.463750 0.256872
vt 0.456002 0.268202
vt 0.014794 0.380208
vt 0.348386 0.380208
vt 0.350192 0.360780
vt 0.015273 0.360780
vt 0.014794 0.277682
vt 0.348386 0.277682
vt 0.015273 0.258254
vt 0.350192 0.258254
vt 0.725248 0.003059
vt 0.725248 0.049493
vt 0.003001 0.048712
vt 0.003001 0.002277
vt 0.996112 0.005988
vt 0.996112 0.052423
vt 0.725379 0.066241
vt 0.725379 0.112676
vt 0.003132 0.111894
vt 0.003132 0.065460
vt 0.996243 0.069171
vt 0.996243 0.115605
vt 0.003132 0.019025
vt 0.724849 0.019806
vt 0.725056 0.082989
vt 0.996375 0.085919
vt 0.724849 0.066241
vt 0.003132 0.065460
vt 0.996243 0.069171
vt 0.725056 0.129424
vt 0.003263 0.128642
vt 0.996375 0.132353
vt 0.003263 0.082208
vt 0.996243 0.022736
vn 0.0000 -1.0000 0.0000
vn 0.5592 0.0000 0.8290
vn -0.6157 0.0000 0.7880
vn -0.9397 0.0000 -0.3420
vn 0.0349 0.0000 -0.9994
vn 0.9613 0.0000 -0.2756
vn 0.0000 1.0000 0.0000
vn 0.5592 0.0000 -0.8290
vn -0.6157 0.0000 -0.7880
vn -0.9397 0.0000 0.3420
vn 0.0349 0.0000 0.9994
vn 0.9613 0.0000 0.2756
vn -1.0000 0.0000 0.0000
vn 1.0000 -0.0000 0.0000
vn -0.5592 0.0000 0.8290
vn 0.6157 0.0000 0.7880
vn 0.9397 0.0000 -0.3420
vn -0.0349 0.0000 -0.9994
vn -0.9613 0.0000 -0.2756
vn -0.5592 0.0000 -0.8290
vn 0.6157 0.0000 -0.7880
vn 0.9397 0.0000 0.3420
vn -0.0349 0.0000 0.9994
vn -0.9613 0.0000 0.2756
vn 0.0000 -0.0000 1.0000
vn 0.0000 0.0000 -1.0000
usemtl cama_2.001
s off
f 21/21/19 22/22/19 23/23/19
f 23/23/19 24/24/19 25/25/19 21/21/19
f 26/26/20 22/27/20 21/28/20 27/29/20
f 28/30/21 23/31/21 22/27/21 26/26/21
f 29/32/22 24/33/22 23/31/22 28/30/22
f 30/34/23 25/35/23 24/33/23 29/32/23
f 27/29/24 21/28/24 25/36/24 30/37/24
f 30/38/25 29/39/25 28/40/25 27/41/25
f 27/41/25 28/40/25 26/42/25
f 31/43/21 32/44/21 33/45/21 34/46/21
f 35/47/24 36/48/24 37/49/24 38/50/24
f 38/50/20 37/49/20 32/44/20 31/43/20
f 34/46/22 33/45/22 39/51/22 40/52/22
f 40/52/23 39/51/23 36/53/23 35/54/23
f 36/55/25 39/56/25 33/57/25 37/58/25
f 37/58/25 33/57/25 32/59/25
f 41/60/19 42/61/19 43/62/19
f 43/62/19 44/63/19 45/64/19 41/60/19
f 46/65/20 42/66/20 41/67/20 47/68/20
f 48/69/21 43/70/21 42/66/21 46/65/21
f 49/71/22 44/72/22 43/70/22 48/69/22
f 50/73/23 45/74/23 44/72/23 49/71/23
f 47/68/24 41/67/24 45/75/24 50/76/24
f 50/77/25 49/78/25 48/79/25 47/80/25
f 47/80/25 48/79/25 46/81/25
f 51/82/19 52/83/19 53/84/19
f 54/85/19 55/86/19 53/84/19 52/83/19
f 52/87/26 51/88/26 56/89/26 57/90/26
f 51/88/27 53/91/27 58/92/27 56/89/27
f 53/91/28 55/93/28 59/94/28 58/92/28
f 55/93/29 54/95/29 60/96/29 59/94/29
f 54/95/30 52/97/30 57/98/30 60/96/30
f 58/99/25 59/100/25 60/101/25 57/102/25
f 58/99/25 57/102/25 56/103/25
f 61/104/27 62/105/27 63/106/27 64/107/27
f 65/108/30 66/109/30 67/110/30 68/111/30
f 62/105/26 65/112/26 68/113/26 63/106/26
f 69/114/28 61/104/28 64/107/28 70/115/28
f 66/109/29 69/114/29 70/115/29 67/110/29
f 61/116/25 69/117/25 66/118/25 65/119/25
f 61/116/25 65/119/25 62/120/25
f 71/121/19 72/122/19 73/123/19
f 74/124/19 75/125/19 73/123/19 72/122/19
f 72/126/26 71/127/26 76/128/26 77/129/26
f 71/127/27 73/130/27 78/131/27 76/128/27
f 73/130/28 75/132/28 79/133/28 78/131/28
f 75/132/29 74/134/29 80/135/29 79/133/29
f 74/134/30 72/136/30 77/137/30 80/135/30
f 78/138/25 79/139/25 80/140/25 77/141/25
f 78/138/25 77/141/25 76/142/25
f 81/143/25 82/144/25 83/145/25 84/146/25
f 82/144/31 85/147/31 86/148/31 83/145/31
f 85/147/19 87/149/19 88/150/19 86/148/19
f 87/149/32 81/143/32 84/146/32 88/150/32
f 89/151/19 90/152/19 91/153/19
f 92/154/19 93/155/19 91/153/19 90/152/19
f 90/156/33 89/157/33 94/158/33 95/159/33
f 89/157/34 91/160/34 96/161/34 94/158/34
f 91/160/35 93/162/35 97/163/35 96/161/35
f 93/164/36 92/165/36 98/166/36 97/167/36
f 92/165/37 90/156/37 95/159/37 98/166/37
f 96/168/25 97/169/25 98/170/25 95/171/25
f 96/168/25 95/171/25 94/172/25
f 99/173/34 100/174/34 101/175/34 102/176/34
f 103/177/37 104/178/37 105/179/37 106/180/37
f 100/174/33 103/177/33 106/180/33 101/175/33
f 107/181/35 99/173/35 102/176/35 108/182/35
f 104/178/36 107/183/36 108/184/36 105/179/36
f 99/185/25 107/186/25 104/187/25 103/188/25
f 99/185/25 103/188/25 100/189/25
f 109/190/19 110/191/19 111/192/19
f 112/193/19 113/194/19 111/192/19 110/191/19
f 110/195/33 109/196/33 114/197/33 115/198/33
f 109/196/34 111/199/34 116/200/34 114/197/34
f 111/199/35 113/201/35 117/202/35 116/200/35
f 113/203/36 112/204/36 118/205/36 117/206/36
f 112/204/37 110/195/37 115/198/37 118/205/37
f 116/207/25 117/208/25 118/209/25 115/210/25
f 116/207/25 115/210/25 114/211/25
f 119/212/19 120/213/19 121/214/19
f 121/214/19 122/215/19 123/216/19 119/212/19
f 124/217/38 120/218/38 119/219/38 125/220/38
f 126/221/39 121/222/39 120/218/39 124/217/39
f 127/223/40 122/224/40 121/225/40 126/226/40
f 128/227/41 123/228/41 122/224/41 127/223/41
f 125/220/42 119/219/42 123/228/42 128/227/42
f 128/229/25 127/230/25 126/231/25 125/232/25
f 125/232/25 126/231/25 124/233/25
f 129/234/39 130/235/39 131/236/39 132/237/39
f 133/238/42 134/239/42 135/240/42 136/241/42
f 136/241/38 135/240/38 130/235/38 129/234/38
f 132/242/40 131/243/40 137/244/40 138/245/40
f 138/245/41 137/244/41 134/239/41 133/238/41
f 134/246/25 137/247/25 131/248/25 135/249/25
f 135/249/25 131/248/25 130/250/25
f 139/251/19 140/252/19 141/253/19
f 141/253/19 142/254/19 143/255/19 139/251/19
f 144/256/38 140/257/38 139/258/38 145/259/38
f 146/260/39 141/261/39 140/257/39 144/256/39
f 147/262/40 142/263/40 141/264/40 146/265/40
f 148/266/41 143/267/41 142/263/41 147/262/41
f 145/259/42 139/258/42 143/267/42 148/266/42
f 148/268/25 147/269/25 146/270/25 145/271/25
f 145/271/25 146/270/25 144/272/25
f 149/273/25 150/274/25 151/275/25 152/276/25
f 153/277/32 154/278/32 150/274/32 149/273/32
f 155/279/19 156/280/19 154/278/19 153/277/19
f 152/276/31 151/275/31 156/280/31 155/279/31
f 157/281/43 158/282/43 159/283/43 160/284/43
f 161/285/32 162/286/32 158/282/32 157/281/32
f 163/287/44 164/288/44 162/289/44 161/290/44
f 160/291/31 159/292/31 164/288/31 163/287/31
f 160/284/19 165/293/19 166/294/19 157/281/19
f 163/287/19 167/295/19 165/296/19 160/291/19
f 158/282/25 168/297/25 169/298/25 159/283/25
f 162/286/25 170/299/25 168/297/25 158/282/25
f 164/288/25 171/300/25 170/301/25 162/289/25
f 159/292/25 169/302/25 171/300/25 164/288/25
f 161/290/19 172/303/19 167/295/19 163/287/19
f 157/281/19 166/294/19 172/304/19 161/285/19
f 168/297/31 170/299/31 172/304/31 166/294/31
f 170/301/43 171/300/43 167/295/43 172/303/43
f 171/300/32 169/302/32 165/296/32 167/295/32
f 169/298/44 168/297/44 166/294/44 165/293/44
